<mxfile host="app.diagrams.net" agent="Mozilla/5.0 (Macintosh; Intel Mac OS X 10_15_7) AppleWebKit/605.1.15 (KHTML, like Gecko) Version/17.6 Safari/605.1.15" version="24.7.8">
  <diagram name="Page-1" id="s4B0vgLwT4AK8kYWcIAT">
    <mxGraphModel dx="1206" dy="780" grid="1" gridSize="10" guides="1" tooltips="1" connect="1" arrows="1" fold="1" page="1" pageScale="1" pageWidth="827" pageHeight="1169" math="0" shadow="0">
      <root>
        <mxCell id="0" />
        <mxCell id="1" parent="0" />
        <mxCell id="j9v1K-fETRxY-ytINLfB-83" value="premium tier" style="fillColor=#EFF0F3;strokeColor=none;dashed=0;verticalAlign=top;fontStyle=0;fontColor=#232F3D;whiteSpace=wrap;html=1;" vertex="1" parent="1">
          <mxGeometry x="320" y="520" width="270" height="167.5" as="geometry" />
        </mxCell>
        <mxCell id="j9v1K-fETRxY-ytINLfB-81" value="premium tier" style="fillColor=#EFF0F3;strokeColor=none;dashed=0;verticalAlign=top;fontStyle=0;fontColor=#232F3D;whiteSpace=wrap;html=1;" vertex="1" parent="1">
          <mxGeometry x="10" y="520" width="270" height="167.5" as="geometry" />
        </mxCell>
        <mxCell id="j9v1K-fETRxY-ytINLfB-69" value="Standard tier" style="fillColor=#EFF0F3;strokeColor=none;dashed=0;verticalAlign=top;fontStyle=0;fontColor=#232F3D;whiteSpace=wrap;html=1;" vertex="1" parent="1">
          <mxGeometry x="10" y="330" width="270" height="167.5" as="geometry" />
        </mxCell>
        <mxCell id="j9v1K-fETRxY-ytINLfB-61" value="basic tier" style="fillColor=#EFF0F3;strokeColor=none;dashed=0;verticalAlign=top;fontStyle=0;fontColor=#232F3D;whiteSpace=wrap;html=1;" vertex="1" parent="1">
          <mxGeometry x="10" y="140" width="270" height="160" as="geometry" />
        </mxCell>
        <mxCell id="j9v1K-fETRxY-ytINLfB-30" value="" style="sketch=0;pointerEvents=1;shadow=0;dashed=0;html=1;strokeColor=none;aspect=fixed;labelPosition=center;verticalLabelPosition=bottom;verticalAlign=top;align=center;outlineConnect=0;shape=mxgraph.vvd.administrator;fillColor=#65B245;" vertex="1" parent="1">
          <mxGeometry x="59.25" y="173.75" width="21.5" height="50" as="geometry" />
        </mxCell>
        <mxCell id="j9v1K-fETRxY-ytINLfB-31" value="" style="sketch=0;pointerEvents=1;shadow=0;dashed=0;html=1;strokeColor=none;aspect=fixed;labelPosition=center;verticalLabelPosition=bottom;verticalAlign=top;align=center;outlineConnect=0;shape=mxgraph.vvd.administrator;fillColor=#65B245;" vertex="1" parent="1">
          <mxGeometry x="109.25" y="173.75" width="21.5" height="50" as="geometry" />
        </mxCell>
        <mxCell id="j9v1K-fETRxY-ytINLfB-32" value="" style="sketch=0;pointerEvents=1;shadow=0;dashed=0;html=1;strokeColor=none;aspect=fixed;labelPosition=center;verticalLabelPosition=bottom;verticalAlign=top;align=center;outlineConnect=0;shape=mxgraph.vvd.administrator;fillColor=#65B245;" vertex="1" parent="1">
          <mxGeometry x="159.25" y="173.75" width="21.5" height="50" as="geometry" />
        </mxCell>
        <mxCell id="j9v1K-fETRxY-ytINLfB-33" value="" style="sketch=0;pointerEvents=1;shadow=0;dashed=0;html=1;strokeColor=none;aspect=fixed;labelPosition=center;verticalLabelPosition=bottom;verticalAlign=top;align=center;outlineConnect=0;shape=mxgraph.vvd.administrator;fillColor=#65B245;" vertex="1" parent="1">
          <mxGeometry x="209.25" y="173.75" width="21.5" height="50" as="geometry" />
        </mxCell>
        <mxCell id="j9v1K-fETRxY-ytINLfB-34" value="" style="sketch=0;pointerEvents=1;shadow=0;dashed=0;html=1;strokeColor=none;aspect=fixed;labelPosition=center;verticalLabelPosition=bottom;verticalAlign=top;align=center;outlineConnect=0;shape=mxgraph.vvd.administrator;fillColor=#65B245;" vertex="1" parent="1">
          <mxGeometry x="90" y="370" width="21.5" height="50" as="geometry" />
        </mxCell>
        <mxCell id="j9v1K-fETRxY-ytINLfB-35" value="" style="sketch=0;pointerEvents=1;shadow=0;dashed=0;html=1;strokeColor=none;aspect=fixed;labelPosition=center;verticalLabelPosition=bottom;verticalAlign=top;align=center;outlineConnect=0;shape=mxgraph.vvd.administrator;fillColor=#65B245;" vertex="1" parent="1">
          <mxGeometry x="140" y="370" width="21.5" height="50" as="geometry" />
        </mxCell>
        <mxCell id="j9v1K-fETRxY-ytINLfB-36" value="" style="sketch=0;pointerEvents=1;shadow=0;dashed=0;html=1;strokeColor=none;aspect=fixed;labelPosition=center;verticalLabelPosition=bottom;verticalAlign=top;align=center;outlineConnect=0;shape=mxgraph.vvd.administrator;fillColor=#65B245;" vertex="1" parent="1">
          <mxGeometry x="190" y="370" width="21.5" height="50" as="geometry" />
        </mxCell>
        <mxCell id="j9v1K-fETRxY-ytINLfB-38" value="" style="sketch=0;pointerEvents=1;shadow=0;dashed=0;html=1;strokeColor=none;aspect=fixed;labelPosition=center;verticalLabelPosition=bottom;verticalAlign=top;align=center;outlineConnect=0;shape=mxgraph.vvd.administrator;fillColor=#65B245;" vertex="1" parent="1">
          <mxGeometry x="442.5" y="550" width="21.5" height="50" as="geometry" />
        </mxCell>
        <mxCell id="j9v1K-fETRxY-ytINLfB-39" value="" style="sketch=0;pointerEvents=1;shadow=0;dashed=0;html=1;strokeColor=none;aspect=fixed;labelPosition=center;verticalLabelPosition=bottom;verticalAlign=top;align=center;outlineConnect=0;shape=mxgraph.vvd.administrator;fillColor=#65B245;" vertex="1" parent="1">
          <mxGeometry x="128.5" y="550" width="21.5" height="50" as="geometry" />
        </mxCell>
        <mxCell id="j9v1K-fETRxY-ytINLfB-47" value="" style="points=[[0,0.5,0],[0.24,0,0],[0.5,0.28,0],[0.995,0.475,0],[0.5,0.72,0],[0.24,1,0]];verticalLabelPosition=bottom;sketch=0;html=1;verticalAlign=top;aspect=fixed;align=center;pointerEvents=1;shape=mxgraph.cisco19.key;fillColor=#005073;strokeColor=none;" vertex="1" parent="1">
          <mxGeometry x="120" y="250" width="50" height="22.5" as="geometry" />
        </mxCell>
        <mxCell id="j9v1K-fETRxY-ytINLfB-49" value="" style="points=[[0,0.5,0],[0.24,0,0],[0.5,0.28,0],[0.995,0.475,0],[0.5,0.72,0],[0.24,1,0]];verticalLabelPosition=bottom;sketch=0;html=1;verticalAlign=top;aspect=fixed;align=center;pointerEvents=1;shape=mxgraph.cisco19.key;fillColor=#005073;strokeColor=none;" vertex="1" parent="1">
          <mxGeometry x="90" y="440" width="50" height="22.5" as="geometry" />
        </mxCell>
        <mxCell id="j9v1K-fETRxY-ytINLfB-50" value="" style="points=[[0,0.5,0],[0.24,0,0],[0.5,0.28,0],[0.995,0.475,0],[0.5,0.72,0],[0.24,1,0]];verticalLabelPosition=bottom;sketch=0;html=1;verticalAlign=top;aspect=fixed;align=center;pointerEvents=1;shape=mxgraph.cisco19.key;fillColor=#005073;strokeColor=none;" vertex="1" parent="1">
          <mxGeometry x="120" y="620" width="50" height="22.5" as="geometry" />
        </mxCell>
        <mxCell id="j9v1K-fETRxY-ytINLfB-51" value="" style="points=[[0,0.5,0],[0.24,0,0],[0.5,0.28,0],[0.995,0.475,0],[0.5,0.72,0],[0.24,1,0]];verticalLabelPosition=bottom;sketch=0;html=1;verticalAlign=top;aspect=fixed;align=center;pointerEvents=1;shape=mxgraph.cisco19.key;fillColor=#005073;strokeColor=none;" vertex="1" parent="1">
          <mxGeometry x="430.75" y="620" width="50" height="22.5" as="geometry" />
        </mxCell>
        <mxCell id="j9v1K-fETRxY-ytINLfB-52" value="" style="points=[[0,0.5,0],[0.24,0,0],[0.5,0.28,0],[0.995,0.475,0],[0.5,0.72,0],[0.24,1,0]];verticalLabelPosition=bottom;sketch=0;html=1;verticalAlign=top;aspect=fixed;align=center;pointerEvents=1;shape=mxgraph.cisco19.key;fillColor=#005073;strokeColor=none;" vertex="1" parent="1">
          <mxGeometry x="160" y="440" width="50" height="22.5" as="geometry" />
        </mxCell>
        <mxCell id="j9v1K-fETRxY-ytINLfB-62" value="basic tier" style="fillColor=#EFF0F3;strokeColor=none;dashed=0;verticalAlign=top;fontStyle=0;fontColor=#232F3D;whiteSpace=wrap;html=1;" vertex="1" parent="1">
          <mxGeometry x="310" y="140" width="270" height="160" as="geometry" />
        </mxCell>
        <mxCell id="j9v1K-fETRxY-ytINLfB-63" value="" style="sketch=0;pointerEvents=1;shadow=0;dashed=0;html=1;strokeColor=none;aspect=fixed;labelPosition=center;verticalLabelPosition=bottom;verticalAlign=top;align=center;outlineConnect=0;shape=mxgraph.vvd.administrator;fillColor=#65B245;" vertex="1" parent="1">
          <mxGeometry x="359.25" y="173.75" width="21.5" height="50" as="geometry" />
        </mxCell>
        <mxCell id="j9v1K-fETRxY-ytINLfB-64" value="" style="sketch=0;pointerEvents=1;shadow=0;dashed=0;html=1;strokeColor=none;aspect=fixed;labelPosition=center;verticalLabelPosition=bottom;verticalAlign=top;align=center;outlineConnect=0;shape=mxgraph.vvd.administrator;fillColor=#65B245;" vertex="1" parent="1">
          <mxGeometry x="409.25" y="173.75" width="21.5" height="50" as="geometry" />
        </mxCell>
        <mxCell id="j9v1K-fETRxY-ytINLfB-65" value="" style="sketch=0;pointerEvents=1;shadow=0;dashed=0;html=1;strokeColor=none;aspect=fixed;labelPosition=center;verticalLabelPosition=bottom;verticalAlign=top;align=center;outlineConnect=0;shape=mxgraph.vvd.administrator;fillColor=#65B245;" vertex="1" parent="1">
          <mxGeometry x="459.25" y="173.75" width="21.5" height="50" as="geometry" />
        </mxCell>
        <mxCell id="j9v1K-fETRxY-ytINLfB-66" value="" style="sketch=0;pointerEvents=1;shadow=0;dashed=0;html=1;strokeColor=none;aspect=fixed;labelPosition=center;verticalLabelPosition=bottom;verticalAlign=top;align=center;outlineConnect=0;shape=mxgraph.vvd.administrator;fillColor=#65B245;" vertex="1" parent="1">
          <mxGeometry x="509.25" y="173.75" width="21.5" height="50" as="geometry" />
        </mxCell>
        <mxCell id="j9v1K-fETRxY-ytINLfB-67" value="" style="points=[[0,0.5,0],[0.24,0,0],[0.5,0.28,0],[0.995,0.475,0],[0.5,0.72,0],[0.24,1,0]];verticalLabelPosition=bottom;sketch=0;html=1;verticalAlign=top;aspect=fixed;align=center;pointerEvents=1;shape=mxgraph.cisco19.key;fillColor=#005073;strokeColor=none;" vertex="1" parent="1">
          <mxGeometry x="420" y="250" width="50" height="22.5" as="geometry" />
        </mxCell>
        <mxCell id="j9v1K-fETRxY-ytINLfB-70" value="Standard tier" style="fillColor=#EFF0F3;strokeColor=none;dashed=0;verticalAlign=top;fontStyle=0;fontColor=#232F3D;whiteSpace=wrap;html=1;" vertex="1" parent="1">
          <mxGeometry x="320" y="330" width="270" height="167.5" as="geometry" />
        </mxCell>
        <mxCell id="j9v1K-fETRxY-ytINLfB-71" value="" style="sketch=0;pointerEvents=1;shadow=0;dashed=0;html=1;strokeColor=none;aspect=fixed;labelPosition=center;verticalLabelPosition=bottom;verticalAlign=top;align=center;outlineConnect=0;shape=mxgraph.vvd.administrator;fillColor=#65B245;" vertex="1" parent="1">
          <mxGeometry x="400" y="370" width="21.5" height="50" as="geometry" />
        </mxCell>
        <mxCell id="j9v1K-fETRxY-ytINLfB-72" value="" style="sketch=0;pointerEvents=1;shadow=0;dashed=0;html=1;strokeColor=none;aspect=fixed;labelPosition=center;verticalLabelPosition=bottom;verticalAlign=top;align=center;outlineConnect=0;shape=mxgraph.vvd.administrator;fillColor=#65B245;" vertex="1" parent="1">
          <mxGeometry x="450" y="370" width="21.5" height="50" as="geometry" />
        </mxCell>
        <mxCell id="j9v1K-fETRxY-ytINLfB-73" value="" style="sketch=0;pointerEvents=1;shadow=0;dashed=0;html=1;strokeColor=none;aspect=fixed;labelPosition=center;verticalLabelPosition=bottom;verticalAlign=top;align=center;outlineConnect=0;shape=mxgraph.vvd.administrator;fillColor=#65B245;" vertex="1" parent="1">
          <mxGeometry x="500" y="370" width="21.5" height="50" as="geometry" />
        </mxCell>
        <mxCell id="j9v1K-fETRxY-ytINLfB-74" value="" style="points=[[0,0.5,0],[0.24,0,0],[0.5,0.28,0],[0.995,0.475,0],[0.5,0.72,0],[0.24,1,0]];verticalLabelPosition=bottom;sketch=0;html=1;verticalAlign=top;aspect=fixed;align=center;pointerEvents=1;shape=mxgraph.cisco19.key;fillColor=#005073;strokeColor=none;" vertex="1" parent="1">
          <mxGeometry x="400" y="440" width="50" height="22.5" as="geometry" />
        </mxCell>
        <mxCell id="j9v1K-fETRxY-ytINLfB-75" value="" style="points=[[0,0.5,0],[0.24,0,0],[0.5,0.28,0],[0.995,0.475,0],[0.5,0.72,0],[0.24,1,0]];verticalLabelPosition=bottom;sketch=0;html=1;verticalAlign=top;aspect=fixed;align=center;pointerEvents=1;shape=mxgraph.cisco19.key;fillColor=#005073;strokeColor=none;" vertex="1" parent="1">
          <mxGeometry x="470" y="440" width="50" height="22.5" as="geometry" />
        </mxCell>
        <mxCell id="j9v1K-fETRxY-ytINLfB-76" value="API key(100 request/second)" style="text;html=1;align=center;verticalAlign=middle;resizable=0;points=[];autosize=1;strokeColor=none;fillColor=none;" vertex="1" parent="1">
          <mxGeometry x="54.25" y="270" width="180" height="30" as="geometry" />
        </mxCell>
        <mxCell id="j9v1K-fETRxY-ytINLfB-78" value="API key(100 request/second)" style="text;html=1;align=center;verticalAlign=middle;resizable=0;points=[];autosize=1;strokeColor=none;fillColor=none;" vertex="1" parent="1">
          <mxGeometry x="370.75" y="270" width="180" height="30" as="geometry" />
        </mxCell>
        <mxCell id="j9v1K-fETRxY-ytINLfB-79" value="API keys(20 request/sec)" style="text;html=1;align=center;verticalAlign=middle;resizable=0;points=[];autosize=1;strokeColor=none;fillColor=none;" vertex="1" parent="1">
          <mxGeometry x="70.75" y="462.5" width="160" height="30" as="geometry" />
        </mxCell>
        <mxCell id="j9v1K-fETRxY-ytINLfB-84" value="API keys(40 request/sec)" style="text;html=1;align=center;verticalAlign=middle;resizable=0;points=[];autosize=1;strokeColor=none;fillColor=none;" vertex="1" parent="1">
          <mxGeometry x="390" y="657.5" width="160" height="30" as="geometry" />
        </mxCell>
        <mxCell id="j9v1K-fETRxY-ytINLfB-85" value="API keys(20 request/sec)" style="text;html=1;align=center;verticalAlign=middle;resizable=0;points=[];autosize=1;strokeColor=none;fillColor=none;" vertex="1" parent="1">
          <mxGeometry x="375" y="467.5" width="160" height="30" as="geometry" />
        </mxCell>
        <mxCell id="j9v1K-fETRxY-ytINLfB-86" value="API keys(40 request/sec)" style="text;html=1;align=center;verticalAlign=middle;resizable=0;points=[];autosize=1;strokeColor=none;fillColor=none;" vertex="1" parent="1">
          <mxGeometry x="59.25" y="652.5" width="160" height="30" as="geometry" />
        </mxCell>
      </root>
    </mxGraphModel>
  </diagram>
</mxfile>
